<svg width="151" height="150" viewBox="0 0 151 150" fill="none" xmlns="http://www.w3.org/2000/svg">
<g clip-path="url(#clip0_713_2473)">
<rect x="0.5" width="150" height="150" rx="75" fill="white"/>
<path fill-rule="evenodd" clip-rule="evenodd" d="M13.9475 80.631C15.4722 80.7808 16.9969 80.9303 18.5216 81.0801C25.8237 81.6382 33.1229 82.8038 40.3691 83.5033C40.5496 83.2096 40.9027 83.258 41.1171 83.4621C41.8402 83.3987 42.6506 82.8459 43.3055 83.421C43.3268 83.418 43.3481 83.4144 43.3696 83.4124C44.5358 81.1732 45.3419 78.7849 46.1242 76.3934C46.6236 74.9231 47.2955 73.4997 48.537 72.5125C50.6559 71.0411 55.5107 68.0574 57.9987 68.1828C58.04 67.7372 58.2476 67.2779 58.5886 66.9811C57.8371 65.6994 60.8419 64.8632 61.0538 65.0117C60.918 60.7297 62.9315 57.011 67.3712 56.1582C71.3486 55.3291 77.0058 55.1898 79.1449 59.3481C79.3801 59.3216 81.7837 59.3091 82.0163 59.3352C82.3779 58.877 86.3488 63.2183 84.7213 64.7296C99.2717 71.1688 107.545 70.4004 111.573 88.5026C112.117 90.2031 112.157 92.0639 112.732 93.7265C114.777 98.5045 116.436 103.592 116.849 108.791C117.846 109.047 117.961 110.806 116.806 111.06C116.365 111.158 115.996 111.291 115.674 111.542C115.925 115.803 114.895 125.535 114.246 125.505C112.923 129.719 107.02 130.908 102.841 129.427C103.562 130.783 102.841 131.635 102.841 132.36C87.8046 132.929 71.3634 132.601 56.3308 133.382C54.4079 133.354 52.3853 133.854 50.4887 133.566C49.332 133.289 49.3301 131.47 50.5033 131.245L45.3768 130.131C45.4914 130.088 43.2636 128.605 41.5799 125.835C40.0126 122.736 41.0793 118.996 40.3691 115.625C34.8228 115.171 29.1847 114.977 23.6991 114.038C22.9511 116.276 19.7133 113.599 18.6841 112.522C18.6854 112.52 18.6867 112.519 18.688 112.517C18.1899 112.381 17.7905 111.914 17.7771 111.361C17.4278 110.862 17.3545 110.158 17.6895 109.675C16.1542 100.813 13.8137 91.7643 12.9677 82.8186C12.6687 82.7524 12.387 82.6212 12.1482 82.4191L12.1676 82.3998C11.763 81.9486 11.6844 81.1698 12.3588 80.7864C12.9028 80.4769 13.3571 80.5729 13.9475 80.631Z" fill="#F7BE97"/>
<path fill-rule="evenodd" clip-rule="evenodd" d="M71.935 113.801L70.7605 114.548L61.1508 117.646L55.2781 118.394L50.4733 117.646V125.871L49.5123 133.562C49.9394 134.345 53.9968 134.345 61.6846 133.562C66.5854 133.062 84.4964 132.82 88.5744 132.713L88.8055 132.707C93.5975 132.569 98.3312 132.569 103.007 132.707V129.823L89.6597 123.2L77.7009 116.471L71.935 113.801ZM78.7442 58.6759L77.8616 59.3352L79.7885 62.5023L70.4016 70.0981V76.1652L67.4298 78.9771L65.7312 76.1652L63.3376 72.9808L61.6366 67.819L62.2157 64.4183L61.051 64.3086C61.0454 64.541 61.0463 64.7755 61.0538 65.0117C60.8419 64.8632 57.8371 65.6994 58.5886 66.9811C58.2476 67.2778 58.0399 67.7372 57.9987 68.1828C55.5107 68.0574 50.6558 71.0411 48.537 72.5125C47.2955 73.4997 46.6236 74.923 46.1242 76.3934L46.0067 76.7521L45.8853 77.1203L45.763 77.4882C45.0873 79.5108 44.3577 81.5151 43.3695 83.4124C43.3481 83.4144 43.3268 83.418 43.3055 83.4209C42.6505 82.8458 41.8402 83.3987 41.1171 83.4621C40.9077 83.2627 40.5659 83.2119 40.382 83.4834L40.3691 83.5033L49.3779 85.2787L55.321 106.134L60.4967 101.931L63.2748 102.344L70.6112 104.992L79.1438 107.209L98.6228 112.581H101.103L115.538 109.094L116.839 108.665C116.409 103.51 114.76 98.4657 112.732 93.7265C112.157 92.0639 112.117 90.2031 111.573 88.5025C107.545 70.4004 99.2717 71.1687 84.7212 64.7296C86.3487 63.2183 82.3778 58.877 82.0162 59.3352L81.9935 59.3332L81.9442 59.3305L81.8807 59.3283C81.313 59.3118 79.3559 59.3243 79.1449 59.3481C79.0225 59.1102 78.8886 58.8863 78.7442 58.6759Z" fill="black"/>
<path fill-rule="evenodd" clip-rule="evenodd" d="M12.5077 81.2643L12.776 82.7602C12.8398 82.7811 12.9047 82.7988 12.9704 82.8133C13.0547 83.7051 13.1539 84.5979 13.2657 85.4915L14.9293 94.7674C15.2163 96.4084 15.4887 98.053 15.7591 99.6981L16.1174 101.465L16.3393 102.563C16.8184 104.942 17.2838 107.313 17.6922 109.67C17.6305 109.759 17.5827 109.855 17.5479 109.956L17.5793 110.089L17.6012 110.178L17.6235 110.265C17.9458 111.504 18.5064 112.706 19.8277 113.071C20.8244 113.346 21.918 113.37 22.9471 113.479L23.0612 113.491L41.0698 115.517C43.2457 115.762 45.4207 116.014 47.5955 116.269L49.4808 116.49C52.1085 116.795 54.7514 117.034 57.3404 117.585C57.4356 117.606 57.5144 117.644 57.5787 117.694C57.0573 115.719 56.5582 113.748 56.1059 111.753C55.5968 109.509 55.1136 107.26 54.5691 105.023C53.4721 100.518 52.2424 96.0419 50.8961 91.6044C50.6136 90.6731 50.3246 89.7436 50.0292 88.8162L49.822 88.168L49.6624 87.6515C49.4156 86.8639 49.1101 86.0544 48.3863 85.6199C47.5392 85.1114 46.384 85.0271 45.4233 84.8513L44.7727 84.729C43.7993 84.5474 42.8246 84.3726 41.8488 84.2047C37.1767 83.4008 32.4782 82.7559 27.7624 82.2715C22.8552 81.7674 17.931 81.4398 13.0007 81.2797L12.5077 81.2643ZM57.2055 112.192L57.1595 112.196L57.8322 117.576C57.9398 117.5 58.0763 117.454 58.243 117.454C60.4495 117.461 62.5646 116.756 64.6104 115.98L64.9219 115.861L65.7905 115.527C66.6734 115.189 67.561 114.858 68.4652 114.583L68.8307 114.473L69.0165 114.418C69.7011 114.218 70.4212 114.036 71.1333 113.991L71.2303 113.986L71.023 113.877C70.9927 113.861 70.9661 113.843 70.9425 113.824C70.5505 113.853 70.1578 113.845 69.7444 113.771C68.9668 113.631 68.2108 113.36 67.5165 112.983L67.2064 112.815L67.0795 112.748L66.9956 112.704L66.9123 112.662C66.316 112.365 65.7458 112.179 64.993 112.337C64.1383 112.517 63.3894 112.978 62.619 113.367L62.4822 113.435L62.3903 113.48L62.2966 113.524L62.2018 113.567C61.1599 114.036 59.5019 114.542 59.1024 113.125C58.9419 112.556 59.0676 112.023 59.3461 111.555C58.8272 111.51 57.9001 112.122 57.2055 112.192ZM31.2723 94.4684L31.2597 94.533C31.1124 95.3264 31.4818 96.0853 32.0409 96.6386C32.4995 97.0924 33.3111 97.3445 33.541 97.9973C33.6719 98.3687 33.5327 98.7209 33.2638 98.9664L33.3257 98.997L33.3863 99.028L33.4454 99.0593L33.503 99.0908L33.5591 99.1225C34.4725 99.6474 35.2163 100.501 34.3925 101.532C33.458 102.702 31.5054 102.74 30.1297 102.648L30.037 102.642C28.7031 102.542 27.1229 102.093 26.3996 100.861C26.0678 100.296 26.1043 99.6124 26.5668 99.1286C26.8458 98.8368 27.3434 98.537 27.7998 98.5016C27.7798 98.2444 27.8105 97.9959 27.9009 97.7862C28.0965 97.333 28.6171 97.0278 29.1191 97.0168C29.0785 96.0545 29.849 95.1045 30.4163 94.3351L30.4742 94.2562L30.5305 94.1786C30.7908 93.8163 31.3478 94.0193 31.2723 94.4684ZM30.511 95.4928L29.9941 97.4298L30.003 97.4457C30.1851 97.7916 29.7078 98.1842 29.4247 97.8936L29.3962 97.8629C29.0602 97.5157 28.5444 97.9824 28.538 98.3518C28.5289 98.8719 28.8673 99.2741 29.2706 99.5398L29.2988 99.5581L29.3732 99.6043C29.7041 99.8231 29.4535 100.281 29.0897 100.225C28.6396 100.156 28.2707 99.7988 28.0432 99.3528C27.8002 99.4224 27.5237 99.414 27.2677 99.5573C26.6228 99.9181 26.9937 100.549 27.4137 100.931L27.4307 100.946L27.4649 100.976C28.2355 101.633 29.2845 101.862 30.2734 101.911L30.3304 101.913C31.3292 101.956 32.6306 101.97 33.4867 101.383C34.0195 101.017 34.1738 100.498 33.7229 100.007C33.4679 99.7292 33.2105 99.4492 32.9455 99.1785C32.5488 99.3679 32.1945 99.2911 31.7889 99.1118C31.7369 99.0888 31.7657 99.0092 31.8167 99.0092C32.0405 99.009 32.8617 98.5933 32.9016 98.3278C32.9385 98.082 32.4842 97.8748 32.2633 97.756L32.2313 97.7385L32.2035 97.7224C31.9725 97.5823 31.7549 97.4193 31.5561 97.2362C31.0515 96.7716 30.685 96.1888 30.525 95.5509L30.511 95.4928Z" fill="white"/>
<path fill-rule="evenodd" clip-rule="evenodd" d="M78.8677 58.3823C78.4147 57.2433 76.8832 57.6861 77.0539 58.8827C77.1561 59.5994 77.5485 60.3564 77.901 60.9846C78.188 61.4959 78.5154 61.995 78.9592 62.3782C78.1691 63.1157 77.349 63.8262 76.508 64.5009C75.5904 65.237 74.6254 65.9155 73.6281 66.5391C72.7535 67.086 71.8394 67.5705 71.015 68.1945C70.2484 68.7746 69.5501 69.4724 69.1948 70.3832C68.8162 71.3531 68.9807 72.3548 69.2595 73.3241L69.2915 73.4337C69.5763 74.3939 70.0693 75.5515 69.3857 76.4562C69.0377 76.9168 68.5318 77.2431 68.095 77.6113C67.7068 77.9385 67.3423 78.2945 67.0081 78.6768C66.2794 79.5101 65.6867 80.4479 65.3126 81.4928L65.2792 81.5877C64.9586 82.5127 64.7243 83.6458 65.1575 84.5539C65.2818 84.8142 65.6826 84.7296 65.7522 84.4762C65.9096 83.9019 65.9014 83.3005 66.0334 82.7182C66.1707 82.1125 66.3992 81.5376 66.6976 80.9937C67.275 79.9415 68.057 79.0427 68.981 78.2828L69.2575 78.0578C69.9783 77.4661 70.6405 76.8383 70.7868 75.859C70.9433 74.8113 70.5237 73.8132 70.2539 72.8215C70.0658 72.1304 70.0044 71.4679 70.2076 70.8434C70.4559 71.2487 70.7946 71.6335 71.0625 71.9767C71.596 72.6604 72.1346 73.34 72.6718 74.0208C73.2225 74.719 73.7597 75.4281 74.2713 76.1557C74.5001 76.4811 74.7265 76.8085 74.9521 77.1362C75.1217 77.3826 75.3583 77.6287 75.5433 77.8799C75.4983 78.0143 75.5018 78.1692 75.5832 78.2792C76.5639 79.6048 77.9592 76.8389 78.3231 76.1401C79.0641 74.717 79.6156 73.2051 80.359 71.7823C81.1294 70.3073 82.0067 68.8717 82.9844 67.5252C83.5759 66.7107 84.2387 65.9457 84.7797 65.1054C86.0543 66.2616 87.7315 67.0366 89.2721 67.7395C90.9647 68.5116 92.7232 69.1424 94.4586 69.8122L94.9713 70.0114C97.9615 71.1788 101.025 72.4614 103.51 74.535C106.431 76.9719 108.159 80.3682 109.445 83.8852C110.926 87.9341 112.151 92.0923 113.293 96.2478C113.877 98.374 114.432 100.51 114.953 102.652C115.412 104.54 115.793 106.447 116.325 108.315C115.246 108.277 114.016 108.694 113.096 108.815C108.899 109.364 104.76 110.24 100.798 111.757C100.309 111.944 100.167 112.433 100.274 112.829C99.9915 112.75 99.7095 112.669 99.4273 112.59C99.7365 112.116 99.589 111.268 99.5646 110.743L99.5632 110.707C99.5382 110.007 99.4623 109.306 99.413 108.608C99.3193 107.276 99.1973 105.954 99.035 104.629L98.9936 104.298C98.8097 102.857 98.6738 101.408 98.4732 99.9699L98.4495 99.8053C98.5457 99.4373 98.6577 99.0738 98.7753 98.7119C99.0885 97.7479 99.5307 96.8405 99.9182 95.9068C99.9639 95.7969 99.8073 95.7338 99.7342 95.7997C99.078 96.3903 98.5567 97.1395 98.1379 97.9231C98.1307 97.8861 98.1243 97.8491 98.1167 97.8121L98.0689 97.5768C97.951 97.003 97.8077 96.3993 97.4558 95.9338C97.4184 95.8844 97.3443 95.874 97.3088 95.9338C96.972 96.5039 96.9344 97.2259 96.8826 97.8746C96.8239 98.6084 96.8166 99.3516 96.8269 100.087C96.8471 101.525 96.9485 102.968 97.0292 104.403C97.1084 105.814 97.2639 107.207 97.4643 108.604L97.5024 108.866C97.6004 109.531 97.6806 110.204 97.8098 110.865L97.8463 111.044C97.9154 111.372 97.9579 111.834 98.0954 112.217C94.5571 111.23 91.0134 110.265 87.4629 109.317C84.8968 108.632 82.328 107.957 79.7603 107.278C79.6248 107.034 79.4561 106.806 79.2455 106.602C78.5518 105.93 77.6324 105.63 76.7892 106.147C76.7207 106.19 76.7149 106.297 76.7892 106.338C76.9508 106.426 77.1127 106.517 77.2716 106.611L75.7298 106.193C74.5774 105.881 73.4112 105.49 72.2317 105.273C70.0591 104.2 67.7224 103.424 65.4338 102.656L65.1641 102.565C63.9923 102.166 62.7802 101.718 61.5695 101.497C60.6832 101.334 59.6428 101.53 59.2864 102.438C58.8351 102.736 58.4106 103.086 58.0009 103.429C57.7047 103.678 57.4208 103.942 57.1321 104.199L57.0789 104.246C56.8428 104.451 56.6558 104.588 56.5979 104.914C56.568 105.083 56.675 105.31 56.8827 105.288C57.5181 105.22 58.0348 104.483 58.4657 104.043C58.7986 103.703 59.1342 103.351 59.4381 102.978C59.6152 103.074 59.8581 103.057 59.9708 102.843C60.5555 101.736 62.1572 102.503 63.0435 102.766L64.313 103.142C64.9477 103.33 65.5822 103.519 66.2156 103.711C67.9565 104.24 69.6888 104.832 71.4455 105.318C71.2883 105.491 71.31 105.798 71.6085 105.915C72.9836 106.455 74.4921 106.734 75.9206 107.104C76.8226 107.338 77.7239 107.574 78.625 107.811C78.7795 108.061 78.8907 108.344 78.9374 108.674C79.1094 109.886 78.7778 111.285 78.4547 112.458L78.406 112.633C78.1405 113.576 77.7498 114.731 76.9367 115.327C76.7382 115.472 76.4855 115.573 76.2307 115.596C74.639 114.776 73.0474 113.957 71.4549 113.139C71.1599 112.987 70.8873 113.192 70.8211 113.436C70.2595 113.344 69.6993 113.199 69.189 113.026C68.3316 112.734 67.6621 112.179 66.8583 111.795C65.303 111.051 63.7148 111.964 62.3223 112.658L62.0013 112.816C61.3769 113.119 60.0777 113.701 59.7781 112.873C59.4883 112.071 60.4045 111.213 60.9963 110.853C61.7016 110.422 62.5229 110.192 63.3201 110C63.7753 109.89 64.236 109.801 64.6995 109.736C65.2253 109.662 65.7684 109.673 66.2746 109.502C66.5261 109.418 66.5648 109.018 66.2746 108.952C65.4953 108.775 64.5653 108.968 63.7521 109.166L63.3271 109.271C62.5078 109.472 61.6806 109.724 60.9343 110.125C60.3917 110.417 59.819 110.86 59.4448 111.403C59.1199 111.101 58.7155 111.111 58.2943 111.223L58.0657 111.287C57.6881 111.392 57.3821 111.464 57.0147 111.391C56.9656 111.124 56.9159 110.856 56.8626 110.589C56.3391 107.96 55.7649 105.34 55.1314 102.735C54.0387 98.2418 52.7743 93.7975 51.3488 89.3989L51.2058 88.9591C50.877 87.953 50.6124 86.8569 50.0824 85.9326C49.5811 85.0586 48.7779 84.5552 47.8237 84.2886C46.7408 83.9861 45.6029 83.8278 44.4982 83.6234C44.2517 83.5779 44.0046 83.5347 43.758 83.4899C43.9664 83.1134 44.122 82.6861 44.2622 82.3581L44.2867 82.3013C44.5878 81.6146 44.8583 80.9155 45.1194 80.2127L45.3148 79.6844C45.7864 78.4121 46.2731 77.1607 46.9361 75.9708C47.634 74.7184 48.5599 73.6946 49.714 72.8472C52.0671 71.1194 54.9034 70.238 57.1857 68.3915C57.2792 68.3159 57.1593 68.1865 57.0644 68.2344C55.5233 69.009 53.8596 69.5357 52.2567 70.1663L51.9405 70.2912C50.6736 70.7936 49.387 71.3405 48.2904 72.154C47.0678 73.0611 46.1049 74.1876 45.3812 75.5272C44.6679 76.8476 44.2117 78.3256 43.7085 79.7361L43.5739 80.1119C43.3709 80.6754 43.1612 81.2372 42.921 81.7857C42.7303 82.221 42.3744 82.7181 42.2126 83.2154C41.7701 83.1386 41.3276 83.0616 40.8846 82.9876C31.289 81.3849 21.5863 80.4432 11.862 80.1677C11.4815 80.1569 11.2848 80.5201 11.3408 80.8521C12.274 86.3725 13.1033 91.9118 14.0133 97.4363C14.4105 99.8475 14.8156 102.257 15.2302 104.665C15.4402 105.885 15.683 107.1 15.882 108.322C16.0425 109.309 16.1591 110.304 16.4348 111.267C16.6821 112.132 17.0616 112.965 17.6848 113.625C18.3567 114.335 19.2944 114.679 20.2383 114.842C22.6344 115.254 25.0921 115.423 27.5077 115.698L40.3684 117.161C40.1805 118.87 40.1664 120.553 40.2527 122.281L40.3018 123.225C40.342 123.984 40.39 124.745 40.499 125.496C40.6357 126.438 41.0666 127.236 41.7014 127.94C42.2843 128.587 42.9924 129.138 43.6812 129.667C44.3962 130.216 45.135 130.745 45.9756 131.085L46.0847 131.128C46.8222 131.416 48.2056 131.862 49.2137 131.699C49.0819 132.36 48.8269 133.07 49.053 133.723C49.1578 134.027 49.5545 134.178 49.7975 133.92C50.279 133.408 50.3165 132.732 50.4306 132.065C50.5492 131.37 50.6515 130.673 50.7424 129.974C50.9181 128.622 51.0549 127.259 51.0966 125.896C51.1396 124.496 51.123 123.095 51.0476 121.697C51.0089 120.979 50.9608 120.262 50.8697 119.548C50.8309 119.244 50.7912 118.94 50.7458 118.636C50.7292 118.525 50.7109 118.415 50.6911 118.305L51.8454 118.436C53.6154 118.633 55.3862 118.812 57.1687 118.84C57.3798 118.843 57.5422 118.747 57.6483 118.607C57.7614 118.791 57.9583 118.923 58.2403 118.922C60.7295 118.912 63.0476 118.098 65.3117 117.138C66.4529 116.655 67.5764 116.131 68.7193 115.651C69.7861 115.203 70.9266 114.884 71.9676 114.379L74.7032 115.815C74.7233 115.885 74.749 115.952 74.7763 116.008C74.9544 116.372 75.3056 116.569 75.6643 116.718C76.0085 116.861 76.365 116.905 76.7124 116.869C78.787 117.956 80.8622 119.043 82.9387 120.127L85.0157 121.21C89.1539 123.366 93.2757 125.556 97.4399 127.661L97.7465 127.816C99.1848 128.537 100.729 129.269 102.326 129.814C102.354 130.218 102.336 130.612 102.302 131.039L102.294 131.133C102.246 131.638 102.144 132.272 102.55 132.631C102.761 132.819 103.137 132.819 103.281 132.537C103.541 132.025 103.307 131.219 103.225 130.663C103.196 130.465 103.16 130.262 103.107 130.064C104.937 130.609 106.822 130.874 108.685 130.568C110.498 130.27 111.902 129.127 113.034 127.73C114.229 126.255 115.078 124.536 115.533 122.694C116.051 120.597 116.085 118.432 116.073 116.284C116.06 113.998 115.976 111.699 115.698 109.428C116.002 109.356 116.34 109.294 116.648 109.316C116.8 109.56 117.096 109.662 117.363 109.631C117.945 110.272 116.47 110.927 115.999 111.091C115.836 111.148 115.853 111.414 116.042 111.406L116.161 111.4C116.889 111.362 117.641 111.237 118.069 110.561C118.412 110.018 118.309 109.376 117.9 108.933C117.63 106.379 116.984 103.892 116.383 101.4C115.794 98.9547 115.138 96.5249 114.443 94.1073L114.132 93.0252C113.037 89.2344 111.893 85.4131 110.384 81.7729C109.63 79.9553 108.762 78.1712 107.585 76.5864C106.488 75.109 105.193 73.8448 103.704 72.7651C100.928 70.7521 97.6713 69.5357 94.4712 68.3769L94.328 68.325C92.6697 67.7249 91.0154 67.1177 89.376 66.4675C87.9261 65.8925 86.537 65.1635 85.094 64.5798C85.1409 64.4947 85.1861 64.4086 85.2297 64.3216L85.2564 64.344C85.2609 64.3476 85.2656 64.3511 85.2705 64.3545C85.4156 64.4551 85.6292 64.4056 85.7488 64.2927C86.0865 63.974 85.9722 63.6201 85.7468 63.2896L85.7174 63.2475C85.4417 62.8612 85.1958 62.4527 84.9414 62.0523L84.7821 61.802C84.355 61.1331 83.9061 60.4598 83.3367 59.907C83.0729 59.6509 82.7842 59.4593 82.4783 59.3164C82.5045 59.2611 82.2751 59.148 82.2101 59.2049C81.2409 58.8501 80.1258 58.9244 79.0692 59.0223M40.9907 117.232L42.3382 117.385C43.8207 117.554 45.3037 117.717 46.7869 117.879L50.0086 118.229C50.0168 118.413 50.0392 118.593 50.0432 118.731C50.0642 119.447 50.0799 120.162 50.0948 120.878C50.1246 122.312 50.0919 123.748 49.9975 125.18C49.906 126.567 49.7855 127.954 49.5983 129.332L49.5599 129.607L49.5377 129.752C49.3849 129.767 49.2348 129.839 49.11 129.989C48.8375 130.314 47.8508 129.998 47.4654 129.861C46.8317 129.635 46.235 129.254 45.6843 128.872C45.1466 128.498 44.6624 128.063 44.1971 127.605L43.8164 127.228C43.4377 126.852 43.0585 126.451 42.8265 125.977C42.5118 125.335 42.4712 124.547 42.3789 123.847C42.2653 122.987 42.13 122.127 41.987 121.271M80.1083 108.202L80.248 108.238C85.3253 109.588 90.395 110.977 95.4878 112.268C98.0081 112.906 100.54 113.498 103.064 114.124L103.472 114.227C105.463 114.73 107.478 115.336 109.002 116.78C109.058 116.833 109.14 116.752 109.087 116.695C107.444 114.946 105.107 114.205 102.864 113.563C102.449 113.444 102.034 113.328 101.619 113.21C104.67 112.122 107.77 111.175 110.941 110.5C111.757 110.326 112.583 110.199 113.399 110.024C113.968 109.902 114.524 109.726 115.087 109.58L115.529 109.469L115.535 110.869C115.543 112.852 115.539 114.833 115.438 116.816L115.419 117.183C115.301 119.39 115.117 121.642 114.334 123.723C113.698 125.414 112.684 127.006 111.358 128.238C110.687 128.861 109.966 129.346 109.075 129.585C108.247 129.808 107.379 129.834 106.528 129.774C102.447 129.49 98.813 127.271 95.2672 125.435C89.4675 122.431 83.6672 119.428 77.8616 116.436C78.0186 116.328 78.1663 116.205 78.3008 116.066C79.0793 115.261 79.4899 114.16 79.7596 113.094C80.0468 111.959 80.2184 110.742 80.2384 109.571M72.7213 117.595C72.67 117.568 72.6106 117.602 72.6083 117.66C72.5903 118.104 72.8354 118.541 73.0185 118.941L73.0378 118.984C73.2603 119.479 73.5038 119.967 73.7557 120.448C74.2591 121.408 74.7823 122.358 75.3284 123.295C76.4264 125.179 77.6467 126.984 79.089 128.625C79.4148 128.995 79.9506 128.52 79.7415 128.121C78.7335 126.197 77.5585 124.381 76.3489 122.58C75.7434 121.679 75.1383 120.776 74.5268 119.879C74.2717 119.504 74.0133 119.131 73.748 118.764L73.5879 118.544M12.505 81.2695C17.6 81.4234 22.689 81.7559 27.7597 82.2768C32.4755 82.7612 37.1741 83.4061 41.8461 84.21C42.8219 84.3779 43.7966 84.5526 44.77 84.7343L45.3539 84.8441C46.3274 85.0287 47.5168 85.1049 48.3836 85.6252C49.2975 86.1737 49.5445 87.32 49.8486 88.2654C50.206 89.3771 50.5545 90.4921 50.8935 91.6097C52.2397 96.0472 53.4694 100.523 54.5664 105.029C55.111 107.265 55.5941 109.514 56.1032 111.759C56.5555 113.753 57.0546 115.725 57.576 117.699C57.5117 117.649 57.4329 117.611 57.3378 117.591C54.7487 117.039 52.1058 116.8 49.4781 116.496L49.2238 116.466C46.5054 116.146 43.7871 115.829 41.0671 115.523L23.0585 113.497C21.9964 113.377 20.8586 113.361 19.8251 113.076C18.0678 112.591 17.6559 110.626 17.361 109.06L17.3521 109.013C16.4632 104.284 15.7556 99.5137 14.9266 94.7726M57.1569 112.201C57.856 112.155 58.8129 111.515 59.3434 111.561C59.0649 112.028 58.9393 112.561 59.0997 113.13C59.5464 114.715 61.5662 113.895 62.5392 113.411C63.3369 113.014 64.1072 112.528 64.9903 112.342C65.9908 112.132 66.6686 112.53 67.5138 112.989C68.2081 113.365 68.9641 113.636 69.7417 113.776C70.1551 113.851 70.5478 113.858 70.9398 113.829C70.9634 113.849 70.99 113.866 71.0203 113.882L71.2277 113.991C70.2901 114.034 69.3351 114.324 68.4625 114.589C67.5583 114.863 66.6707 115.194 65.7878 115.532L64.9192 115.866C62.7767 116.687 60.559 117.467 58.2403 117.46C58.0736 117.459 57.9371 117.505 57.8295 117.581M61.0687 107.237C60.3779 107.153 59.7404 107.243 59.1885 107.693C58.5228 108.236 58.0756 109.135 57.1187 109.194C56.8397 109.211 56.7749 109.604 57.0522 109.686C57.7645 109.897 58.3412 109.511 58.8265 109.011L59.1528 108.67C59.6323 108.173 60.0747 107.789 60.8884 107.819C61.7599 107.85 62.6329 108.052 63.4987 108.154C64.4796 108.27 65.4602 108.369 66.4441 108.455C66.4898 108.459 66.4976 108.387 66.4548 108.376L65.3528 108.102M61.7354 104.412L61.6215 104.401C60.6185 104.303 59.7012 104.3 58.8054 104.839L58.6336 104.943C57.8259 105.434 56.9469 106.013 56.4418 106.808C56.3592 106.938 56.4957 107.091 56.634 107.058C57.6047 106.825 58.3143 106.113 59.1306 105.579C60.0468 104.981 60.9931 105.08 62.0377 105.173C63.049 105.263 64.0599 105.386 65.0613 105.555C66.0023 105.713 66.9463 105.963 67.8968 106.043L67.8966 106.041C68.0052 106.041 68.0672 105.878 67.9564 105.822C66.9918 105.341 65.8746 105.113 64.8254 104.892M31.2656 94.4949C31.3625 94.031 30.7922 93.8159 30.5278 94.1839L30.4716 94.2615C29.9004 95.0443 29.0744 96.0265 29.1164 97.0221C28.6144 97.0331 28.0938 97.3383 27.8982 97.7915C27.8078 98.0012 27.7772 98.2496 27.7971 98.5068C27.3408 98.5423 26.8431 98.842 26.5641 99.1339C26.1016 99.6176 26.0651 100.301 26.3969 100.867C27.1202 102.099 28.7004 102.547 30.0344 102.647L30.0819 102.65C31.4597 102.746 33.4451 102.72 34.3898 101.537C35.3012 100.397 34.2939 99.4732 33.2611 98.9717C33.53 98.7261 33.6692 98.374 33.5383 98.0026C33.3084 97.3498 32.4968 97.0976 32.0382 96.6439C31.4792 96.0906 31.1097 95.3316 31.257 94.5382M30.5083 95.498C30.6603 96.1586 31.0336 96.7627 31.5535 97.2415C31.7523 97.4246 31.9698 97.5876 32.2008 97.7276L32.2286 97.7438C32.4337 97.8589 32.9377 98.0747 32.8989 98.3331C32.859 98.5986 32.0378 99.0142 31.814 99.0144C31.763 99.0144 31.7342 99.094 31.7862 99.1171C32.1919 99.2963 32.5461 99.3731 32.9428 99.1838C33.2078 99.4544 33.4653 99.7345 33.7202 100.012C34.1711 100.503 34.0169 101.022 33.484 101.388C32.6279 101.976 31.3266 101.961 30.3277 101.918C29.3223 101.876 28.2476 101.651 27.4623 100.981L27.4281 100.951C27.0012 100.572 26.6114 99.9282 27.2651 99.5625C27.521 99.4193 27.7975 99.4277 28.0406 99.3581C28.268 99.804 28.6369 100.161 29.0871 100.23C29.4509 100.286 29.7014 99.8283 29.3705 99.6095L29.2961 99.5633C28.8806 99.298 28.526 98.8893 28.5353 98.3571C28.5418 97.9876 29.0575 97.521 29.3935 97.8681L29.4089 97.8848C29.69 98.2018 30.1852 97.8023 30.0003 97.451L29.9914 97.4351M96.0809 77.1278C96.0821 77.0484 95.9706 77.0187 95.9316 77.0874C95.279 78.236 94.9378 79.6439 94.5902 80.9094C94.2261 82.235 93.9321 83.574 93.6681 84.9229C93.1332 87.6543 92.8482 90.37 92.8289 93.1539C92.8263 93.5514 93.4735 93.6571 93.5368 93.2498C93.9572 90.5419 94.36 87.8312 94.7835 85.1241C94.9967 83.7625 95.2447 82.4061 95.4821 81.0486M89.6201 79.1284C89.6682 78.97 89.4377 78.917 89.3788 79.0618C88.0691 82.278 87.6256 85.9228 88.4664 89.3158C88.5951 89.8348 89.355 89.61 89.2579 89.0975M72.7265 76.2706C72.7331 76.1521 72.5792 76.1334 72.5213 76.215C71.9007 77.0897 71.6432 78.2612 70.5545 78.7132C70.0109 78.9389 69.3992 78.8996 68.9189 79.2808C68.5978 79.5358 68.3516 79.9383 68.5926 80.3244C68.6703 80.4492 68.8879 80.5117 68.9934 80.3761C69.1474 80.1786 69.2289 79.9421 69.438 79.7941C69.733 79.5853 70.1309 79.5723 70.4692 79.4742C70.9067 79.3473 71.2924 79.1252 71.6082 78.7953M62.3588 61.6812C62.2948 61.6486 62.2335 61.6694 62.1926 61.7248C62.1342 61.8036 62.1413 61.8803 62.2128 61.9344C62.1173 62.1297 62.0044 62.6192 61.9883 62.6904C61.923 62.9792 61.8534 63.2664 61.7807 63.5533C61.634 64.1319 61.5055 64.715 61.3586 65.2938C61.203 65.9074 61.0175 66.5144 60.8111 67.1127C60.7978 67.1515 60.7831 67.191 60.7678 67.2311L60.7443 67.2917L60.7385 67.2826C60.6965 67.2162 60.6092 67.2626 60.6195 67.3327C60.6292 67.3965 60.6421 67.4601 60.653 67.524L60.6313 67.5812C60.4963 67.9447 60.4039 68.3276 60.6516 68.6483C60.7443 68.7683 60.8462 68.8393 60.9733 68.8605C61.177 69.5323 61.4326 70.1917 61.7063 70.8249L61.7865 71.0098C62.1891 71.9338 62.6184 72.8457 63.2593 73.6323C63.9591 74.4911 64.9217 75.0775 65.5313 76.0186C65.8149 76.4563 66.0122 76.9166 66.1724 77.4109L66.2326 77.5986C66.3463 77.9482 66.4775 78.2871 66.8053 78.4922C66.91 78.5576 67.0667 78.5368 67.1511 78.4476C67.8234 77.7361 67.1196 76.4075 66.7142 75.7186C66.1506 74.7607 65.3349 74.1479 64.5182 73.4252C63.6379 72.6461 63.0763 71.604 62.5332 70.5774C62.2005 69.9485 61.8793 69.306 61.5411 68.6743C61.8944 68.3619 62.0075 67.7414 62.1272 67.3101L62.1381 67.2714C62.336 66.5808 62.4931 65.8722 62.5924 65.1604C62.688 64.4761 62.7279 63.8016 62.7026 63.1134L62.6953 62.9382M61.0452 64.9382C61.1233 64.8312 60.9941 64.71 60.887 64.7323C60.2359 64.867 59.5993 65.2613 59.0149 65.5801L58.9524 65.614C58.4859 65.8656 58.0166 66.1739 57.7716 66.6628C57.5052 67.1942 57.5272 67.8062 57.5635 68.3836L57.5669 68.4377C57.6115 69.1301 57.6186 69.8497 57.7651 70.5297C57.8401 70.8777 58.1552 70.9757 58.4245 70.8935C58.7451 71.906 59.6455 72.652 60.3032 73.451C61.1419 74.4696 60.984 75.8449 60.8964 77.0716C60.8609 77.5683 61.4785 77.7096 61.7966 77.4445L62.5296 76.8355C62.6517 76.7338 62.7736 76.6319 62.8952 76.5297C62.9994 76.442 63.1025 76.3537 63.2049 76.2642L63.3578 76.1292C63.4256 76.0685 63.7246 75.7343 63.8121 75.7204C64.0239 75.6867 64.5271 76.2452 64.6993 76.4203L64.7212 76.4422C65.0453 76.7602 65.3382 77.1023 65.611 77.4652C65.6612 77.5318 65.7593 77.4765 65.7235 77.3995C65.479 76.8756 65.1948 76.3748 64.8573 75.906L64.7891 75.8127C64.5645 75.51 64.2631 74.9755 63.8668 74.8861C63.3828 74.777 62.8995 75.2625 62.5474 75.532L62.5251 75.5489C62.3576 75.6746 62.192 75.8026 62.0267 75.9314C62.044 75.018 61.9287 74.0951 61.4573 73.308C61.1249 72.7528 60.6269 72.3417 60.2007 71.8647C59.7263 71.3335 59.4786 70.6806 59.0492 70.1274C58.9939 70.0562 58.9176 70.0179 58.8351 70.0057C58.8186 69.561 58.7531 69.1118 58.7025 68.6719L58.6879 68.5402C58.6367 68.0622 58.5158 67.4783 58.7498 67.0307C58.9708 66.6078 59.4778 66.3094 59.8533 66.0225L60.1599 65.7846M82.1776 59.8839C82.3736 59.9973 82.5568 60.1384 82.7231 60.3148C83.2464 60.8701 83.6205 61.5612 83.9846 62.226C84.1807 62.5841 84.3696 62.9461 84.5673 63.3033C84.6532 63.4587 84.7416 63.6124 84.831 63.7659C84.8723 63.8366 84.9951 63.9772 85.056 64.0638C84.9884 64.1586 84.9184 64.2519 84.8471 64.3443C84.8199 64.3795 82.9427 66.4252 82.2884 67.2258C81.2864 68.4522 80.3908 69.7475 79.6251 71.134C78.8753 72.4918 78.3045 73.9293 77.6099 75.3133C77.2623 76.0062 76.874 76.6942 76.3791 77.2939C76.36 77.3173 76.3398 77.3394 76.3203 77.3625C76.1314 76.852 75.6474 76.3055 75.4097 75.9917L75.3875 75.962C74.8484 75.235 74.2791 74.5299 73.6974 73.8368C73.1661 73.2039 72.6213 72.5846 72.0633 71.9756L71.8534 71.7477C71.4646 71.3276 70.9708 70.6989 70.4017 70.3988C70.4626 70.2901 70.5332 70.1825 70.6144 70.0763C71.1476 69.3793 71.9014 68.8734 72.6451 68.4169L73.1275 68.1234C74.9456 67.015 76.7355 65.8552 78.3139 64.415C79.149 63.653 79.9725 62.8548 80.6745 61.9659L80.9227 61.6517M79.1439 59.3351C79.9953 59.4066 80.9147 59.3896 81.7015 59.6671C81.0021 60.3286 80.3372 61.0429 79.6541 61.7156C79.5934 61.2606 79.4691 60.8112 79.3638 60.3676" fill="black"/>
<path fill-rule="evenodd" clip-rule="evenodd" d="M70.4904 17.266C64.4404 17.266 58.1828 21.9672 55.9651 24.9672C54.1006 27.4894 53.0967 38.8948 53.0967 46.6027C53.0967 48.2148 52.2093 51.2536 52.4682 52.7956C53.4172 58.4461 57.5516 63.185 65.7344 63.185C73.9173 63.185 79.7843 59.9333 85.8664 51.203C88.8175 51.203 90.2477 48.9343 90.2684 45.3539C90.2892 41.7735 87.4199 40.4709 87.4199 40.4709C87.4199 40.4709 88.443 26.3413 85.8664 22.6626C83.2898 18.9839 76.5403 17.266 70.4904 17.266Z" fill="#F6BE97"/>
<path fill-rule="evenodd" clip-rule="evenodd" d="M73.0363 15.2681C69.2165 14.8804 65.4734 15.2062 61.709 15.8803C61.4213 15.9325 61.2583 16.1217 61.1977 16.3491C59.4246 16.4303 57.6494 16.5607 55.8787 16.6579C55.2361 16.6932 54.8718 17.3297 55.1648 17.9045C55.2233 18.0187 55.2842 18.1298 55.346 18.2409L55.2683 18.2152C54.7356 18.0439 54.1602 17.9594 53.6412 18.2313C52.9805 18.5774 52.7215 19.3411 52.8675 20.0439C52.9049 20.2234 52.9677 20.3953 53.039 20.5632C52.8941 20.5535 52.7482 20.5567 52.6033 20.576C51.8318 20.6785 51.2586 21.2713 51.2181 22.0607C51.1584 23.2527 51.9245 24.462 52.827 25.3153C52.6961 25.5857 52.6459 25.904 52.7003 26.2266C52.809 26.8643 53.2776 27.2461 53.8208 27.4952C53.5943 28.2164 53.4872 28.9703 53.5504 29.7407C53.5715 29.998 53.7959 30.2104 54.0327 30.2625C53.1499 32.6995 52.703 35.3158 52.3816 37.8652C52.1525 39.6791 52.0396 41.5035 52.0259 43.331C52.0191 44.1561 52.0327 44.9822 52.0672 45.8074L52.0812 46.1168C52.1238 47.0088 52.1259 47.9455 52.2857 48.8279C51.7402 49.7582 51.5207 50.913 51.428 51.9554C51.3129 53.2458 51.4951 54.5767 51.9012 55.8041C53.4334 60.442 58.0575 63.3688 62.7021 64.1294C67.0013 64.8333 71.9761 63.8859 74.4886 59.9709C74.528 59.909 74.4438 59.8578 74.3948 59.8984C72.5973 61.3638 70.5122 62.0175 68.2469 62.3359C64.3301 62.885 59.9276 61.9535 56.7844 59.484C55.2756 58.2983 54.1878 56.5721 53.7092 54.7145C53.4652 53.765 53.3811 52.7747 53.4771 51.7974C53.5751 50.8062 54.0129 49.9602 54.2889 49.0234C54.3816 48.7071 54.2835 48.4134 54.0907 48.2041C54.0365 47.4435 53.9085 46.6765 53.8596 45.9182C53.8052 45.0561 53.7721 44.1941 53.7604 43.331C53.738 41.5408 53.8126 39.7473 53.9628 37.9647C54.2377 34.7002 54.9676 31.5151 55.3959 28.2784C55.5545 28.421 55.7819 28.4796 56.0201 28.355L56.0448 28.3414L56.1748 28.2668C56.1823 28.2668 56.1908 28.2678 56.1983 28.2688C57.0879 28.3554 58.0107 28.2315 58.863 27.9654C59.755 27.6878 60.5828 27.2606 61.3223 26.6912C61.4629 27.4057 61.5216 28.1278 61.5225 28.8563C61.5236 29.3113 62.0041 29.5475 62.3856 29.3531C64.0765 28.4921 65.6918 27.4998 67.2251 26.3847C67.4042 27.3044 67.5831 28.2239 67.7632 29.1447C67.8324 29.4994 68.2832 29.6426 68.572 29.4738C69.7205 28.804 70.7124 27.9271 71.5201 26.8845C71.6813 27.1936 71.843 27.5027 72.0059 27.8111L72.251 28.2731C72.4929 28.727 72.8168 29.2292 73.3463 29.3744C73.9068 29.5282 74.3747 29.164 74.5631 28.6555C74.6207 28.4975 74.674 28.335 74.723 28.1716C75.2004 29.2644 75.7394 30.3326 76.3489 31.3516C77.2631 32.8801 78.3607 34.242 79.4548 35.6392C79.7873 36.0633 80.3562 35.6584 80.4021 35.2462C80.4287 35.0037 80.4511 34.7602 80.4704 34.5176C81.108 35.8075 81.7732 37.0854 82.4981 38.3261L82.3943 38.7339C82.0952 39.9385 81.8469 41.1518 81.5769 42.3628C81.4897 42.7536 81.6969 43.3122 82.1522 43.3788C82.6963 43.4582 83.211 43.7369 83.7683 43.5452C84.3759 43.336 84.496 42.8095 84.7828 42.3105C84.8401 42.2111 84.9067 42.1197 84.9783 42.033L84.9965 42.0567C85.0412 42.1156 85.1478 42.0515 85.1211 41.9842L85.0899 41.9064C85.3364 41.6442 85.6313 41.4254 85.9025 41.1901C86.5469 41.0813 87.2717 41.2005 87.7157 41.4629C88.7269 42.061 89.1913 43.2936 89.2009 44.4271C89.2127 45.7537 88.8025 47.2449 88.11 48.3793C87.8051 48.8781 87.3875 49.3288 86.8356 49.55C86.2879 49.7699 85.6944 49.7017 85.1371 49.9088C84.7685 50.0467 84.5415 50.4569 84.7642 50.8285C84.7791 50.8542 84.7962 50.8776 84.8123 50.9023L84.6465 51.1228C84.5325 51.2756 84.4137 51.4391 84.3028 51.6093C84.0194 51.9363 83.7211 52.2514 83.4323 52.5729C82.8986 53.1656 82.3807 53.7746 81.8555 54.3759C81.3599 54.9432 80.8357 55.4761 80.2955 56.0006C79.7851 56.4974 79.148 56.9149 78.6792 57.4448C78.2232 57.9618 78.0995 58.8643 78.8497 59.1635C79.6797 59.4953 80.4144 58.7177 80.9731 58.1992L80.9966 58.1775C82.0208 57.2327 82.9456 56.153 83.6801 54.9642C84.4076 55.4607 85.4599 55.5081 86.1843 55.0118C86.5655 54.7506 86.858 54.3117 87.0001 53.8342C87.1342 53.8643 87.2681 53.882 87.3988 53.8799C87.466 53.919 87.5334 53.957 87.6016 53.9925C88.1419 54.2744 88.8056 54.1485 89.0528 53.5491C89.2779 53.005 89.046 52.3871 88.8432 51.8629L88.8014 51.7546C88.6863 51.4556 88.5595 51.1298 88.4018 50.8233C88.8408 50.4921 89.216 50.0808 89.5334 49.613C90.5999 48.0375 91.1327 45.7333 90.8972 43.8535C90.7555 42.7191 90.2239 41.5441 89.3534 40.7792L89.3853 40.6959C89.6293 40.0754 89.851 39.4525 89.9947 38.7968C90.1631 38.0298 90.2452 37.2351 90.3197 36.4543C90.4774 34.805 90.4348 33.1184 90.2249 31.4755C89.8306 28.3832 88.8312 25.3475 87.0572 22.7743C87.5602 22.1706 87.9586 21.4603 87.7509 20.6433C87.656 20.2682 87.4398 19.9126 87.1136 19.6978C86.9337 19.5794 86.7194 19.5612 86.5393 19.4629L86.4852 19.4331C86.4061 19.3868 86.4666 19.3917 86.5137 19.1767C86.7002 18.3178 86.5457 17.4879 85.6027 17.2027C84.7152 16.9346 83.8756 17.5039 83.3503 18.1822C81.9758 17.2047 80.1645 16.6932 78.5715 16.2584C76.7602 15.7659 74.9021 15.4584 73.0363 15.2681ZM87.8829 44.0766C87.8894 43.377 87.2277 42.9454 86.5766 43.0598C86.1394 43.1361 85.7746 43.3977 85.4322 43.6681L85.2652 43.8005C84.8481 44.1287 84.3693 44.4826 84.1207 44.9473C83.7563 45.633 84.5266 46.5558 85.2458 46.0752C85.7391 45.7437 86.0554 45.2126 86.379 44.7193L86.4125 44.6684C86.5595 44.4473 86.6885 44.2123 86.8899 44.035L86.9335 43.9968C86.9997 43.9402 87.0708 43.8885 87.1563 43.8641C87.3213 43.8165 87.6269 43.8831 87.6996 44.08L87.7061 44.1001C87.7327 44.1996 87.8818 44.1781 87.8829 44.0766Z" fill="black"/>
<path fill-rule="evenodd" clip-rule="evenodd" d="M61.0396 54.7479C61.8261 54.9758 62.6704 54.9962 63.4722 54.7608C64.1994 54.5473 64.9461 54.0775 65.4813 53.4557C65.9568 52.9035 66.2647 52.2323 66.2526 51.5158C66.2512 51.434 66.222 51.3657 66.177 51.3127C66.1286 51.2556 66.0609 51.2165 65.9885 51.1994C65.9139 51.1819 65.8352 51.1882 65.7681 51.2186C65.7073 51.2462 65.6553 51.2931 65.6228 51.3616C65.5405 51.4697 65.4586 51.5762 65.3763 51.6797C64.715 52.4967 64.0745 53.1073 63.08 53.3262C62.5404 53.4451 62.0015 53.3924 61.5071 53.2111C60.9778 53.017 60.4993 52.6757 60.1244 52.239C59.9549 52.0417 59.7549 51.9611 59.5593 51.9598C59.3376 51.9583 59.1185 52.0613 58.9534 52.226C58.7912 52.3879 58.6825 52.6079 58.6727 52.838C58.664 53.04 58.7299 53.2509 58.9051 53.4392C59.4823 54.0592 60.2302 54.5134 61.0396 54.7479ZM61.0638 44.5157C60.2575 45.006 59.029 46.1493 59.8964 47.3648C60.9174 48.4366 62.3874 47.2077 63.1118 46.652C63.7835 46.2213 64.5382 47.329 63.915 47.8319C58.6805 51.7089 56.5562 44.644 60.656 43.9393C61.1074 43.8616 61.2751 44.3641 61.0638 44.5157ZM68.6064 42.3584C68.8655 42.1926 69.1704 42.1357 69.5082 42.2894C69.7722 42.4095 70.2353 42.8099 70.5575 43.3363C70.778 43.6964 70.9344 44.1188 70.9018 44.5589C70.8942 44.6611 70.932 44.7364 70.9915 44.7921C71.0386 44.8361 71.1065 44.8685 71.1863 44.8786C71.254 44.8872 71.3298 44.8794 71.3914 44.8602C71.5087 44.8236 71.5708 44.7475 71.5941 44.6853C71.8198 44.0859 71.7226 43.4169 71.4697 42.8134C71.1284 41.9989 70.5086 41.3167 70.1026 41.0967C69.4077 40.7202 68.588 40.7028 67.8921 41.0864C67.2998 41.4129 66.9294 41.94 66.5611 42.4773C66.4828 42.5915 66.405 42.7049 66.3247 42.8163C66.1637 43.0394 66.1477 43.2608 66.2101 43.4506C66.2791 43.6609 66.4552 43.8384 66.6754 43.9312C66.8789 44.0171 67.1152 44.0291 67.3242 43.9409C67.5008 43.8664 67.6628 43.7212 67.7654 43.4748C67.938 43.0597 68.2258 42.6018 68.6064 42.3584ZM55.4447 43.2817C55.6222 43.3742 55.761 43.4021 55.9579 43.3431C56.0668 43.3104 56.1744 43.2477 56.2586 43.1634C56.3421 43.0799 56.4023 42.976 56.4258 42.8608C56.4833 42.5764 56.6389 42.3102 56.8605 42.1367C57.05 41.9884 57.2891 41.9097 57.5543 41.9541C57.8405 42.0019 58.1132 42.1855 58.301 42.402C58.3638 42.4744 58.413 42.5567 58.4624 42.6384C58.555 42.7913 58.6449 42.9333 58.7725 43.0455C58.8209 43.0882 58.8938 43.1178 58.9644 43.1178C58.9931 43.1178 59.0222 43.1131 59.0499 43.1045C59.3348 42.8185 59.3896 42.6015 59.3804 42.3863C59.3708 42.1606 59.2818 41.9321 59.1381 41.7189C58.801 41.2188 58.1608 40.8087 57.7288 40.7159C57.1373 40.5887 56.5497 40.7414 56.0787 41.0719C55.594 41.412 55.2349 41.9401 55.1229 42.5351C55.096 42.6785 55.1074 42.8332 55.162 42.9673C55.2153 43.0984 55.3082 43.2106 55.4447 43.2817ZM67.3016 37.0263C67.6567 37.3724 68.0769 37.426 68.502 37.4736C68.7382 37.5004 68.9267 37.5219 69.1123 37.5638C69.6223 37.679 70.1264 37.8524 70.5863 38.1022C71.0671 38.3634 71.591 38.6783 71.9679 39.0818C72.0576 39.1778 72.142 39.2785 72.2266 39.3795C72.3038 39.4716 72.3781 39.5602 72.4564 39.6456C72.5464 39.7438 72.6318 39.8467 72.7168 39.9493C72.7693 40.0359 72.7797 40.0572 72.7903 40.0793C72.8062 40.1126 72.8247 40.1499 72.8459 40.1899C72.8748 40.2447 72.9088 40.3046 72.9443 40.359C73.0034 40.4584 73.0352 40.4857 73.0626 40.498C73.1081 40.5182 73.1512 40.5282 73.1931 40.5228C73.2323 40.5177 73.2693 40.4989 73.3058 40.468C73.4881 40.314 73.5418 40.0611 73.5363 39.7927C73.5279 39.3855 73.3778 38.9346 73.2394 38.6574C72.9175 38.0133 72.4711 37.3437 71.9344 36.863C71.3219 36.3143 70.6519 35.8989 69.8822 35.6127C69.404 35.4347 68.8502 35.2714 68.3291 35.292C67.9541 35.3069 67.596 35.4184 67.3003 35.6969C67.1187 35.8679 67.0316 36.1111 67.0316 36.3542C67.0316 36.602 67.1221 36.8514 67.3016 37.0263ZM54.7226 40.1951C54.7452 40.2321 54.7765 40.2576 54.8112 40.2729C54.8477 40.289 54.8884 40.2936 54.9274 40.287C54.9663 40.2805 55.0033 40.2628 55.0326 40.2359C55.0607 40.2101 55.0821 40.1758 55.0916 40.1338C55.3273 39.0982 55.785 38.3277 56.7619 37.8308C57.2424 37.5863 57.795 37.431 58.3181 37.3072C58.4701 37.2712 58.6307 37.2479 58.7925 37.2243C59.2994 37.1502 59.81 37.0654 60.1405 36.6555C60.3397 36.4086 60.4232 36.0928 60.376 35.804C60.3315 35.532 60.1727 35.2827 59.8839 35.1333C59.165 34.7614 58.2717 35.1263 57.5458 35.4371C57.4919 35.4602 57.4391 35.4828 57.3874 35.5046C56.6775 35.8044 56.03 36.2001 55.4977 36.766C55.0754 37.2149 54.6842 37.8786 54.5266 38.5613C54.3955 39.1293 54.4263 39.7092 54.7226 40.1951Z" fill="black"/>
<path fill-rule="evenodd" clip-rule="evenodd" d="M51.5078 45.1663C52.8042 46.5063 54.9683 46.8909 56.693 46.1722C61.1216 44.3212 58.954 38.5477 55.5386 36.9973C55.1119 36.8909 54.542 36.6385 54.0224 36.5812C53.9754 36.5582 53.8731 36.6249 53.7491 36.5618C49.9831 36.9824 49.1255 42.8309 51.5078 45.1663ZM65.7919 45.5093C67.2459 47.4385 69.949 48.0337 72.1575 47.1369C76.5206 45.418 74.9731 40.2984 71.988 38.2913C65.6822 35.9209 63.0783 41.9522 65.7919 45.5093ZM75.2501 41.2347C75.2541 41.2328 75.2582 41.2318 75.2624 41.2299C75.2393 41.2198 75.2162 41.2096 75.1933 41.1992C75.2008 41.2188 75.2089 41.2381 75.2161 41.2577C75.2274 41.2499 75.2374 41.2408 75.2501 41.2347ZM48.5062 39.1493C48.8621 39.1501 49.3764 39.2086 49.6711 39.4557C50.3978 37.0039 53.0802 34.7348 55.413 36.3894C57.2501 36.9804 58.6133 38.2912 59.388 40.0338C60.7849 39.2025 62.9815 39.5575 64.1929 40.6567C64.9862 38.0343 66.9387 37.116 69.2627 36.9804C71.7992 36.5648 74.3274 39.0292 75.1163 41.0061C75.7722 40.9315 76.7523 40.7226 77.3693 41.1276C81.3741 40.0769 88.3759 39.4977 89.1901 40.0814C89.7703 40.3041 90.0887 41.6741 89.2783 41.7481C88.5721 41.6478 89.3607 40.7442 88.6488 40.6456C84.8559 40.4104 81.1737 41.1746 77.4209 41.4952C77.0858 41.9461 76.0033 42.0969 75.4257 41.9158C76.3353 45.2694 74.3717 47.551 71.4296 48.2344C66.8738 49.2813 62.9102 45.2043 64.1015 40.9637C62.7214 40.2769 61.134 40.3064 59.6306 40.6681C62.1428 49.9174 47.2523 49.5024 49.578 39.7726C48.0303 40.5427 47.6941 39.3047 48.5062 39.1493Z" fill="black"/>
<path d="M86.5551 4.23889C86.1923 4.30804 85.2654 5.87883 84.4225 7.76911C83.121 10.7129 83.0291 11.2626 83.5613 11.6875C84.8695 12.8149 85.4975 12.2556 86.8909 8.7621C88.3452 4.95048 88.2974 3.82 86.5551 4.23889Z" fill="black"/>
<path d="M93.4036 13.5508C89.4822 16.2246 88.662 17.2023 90.0486 17.6785C90.6118 17.8719 92.1983 17.0604 94.8514 15.259C97.0672 13.7433 98.8905 12.3834 98.9649 12.1668C99.0244 11.9935 98.6073 11.6565 98.044 11.4631C97.2641 11.1952 96.1148 11.7209 93.4036 13.5508Z" fill="black"/>
<path d="M98.9474 21.1467C95.0443 21.7924 91.3973 22.9619 91.5369 23.5427C91.7742 24.5445 93.2513 24.6158 96.6641 23.7049C98.5662 23.244 100.585 22.7262 101.209 22.6015C101.833 22.4767 102.4 22.2356 102.475 22.0189C102.787 21.109 101.313 20.748 98.9474 21.1467Z" fill="black"/>
</g>
<rect x="1" y="0.5" width="149" height="149" rx="74.5" stroke="#D8D8D8"/>
<defs>
<clipPath id="clip0_713_2473">
<rect x="0.5" width="150" height="150" rx="75" fill="white"/>
</clipPath>
</defs>
</svg>
