<svg width="248" height="32" viewBox="0 0 248 32" fill="none" xmlns="http://www.w3.org/2000/svg">
<rect x="0.5" y="0.5" width="31" height="31" rx="5.5" fill="white"/>
<rect x="0.5" y="0.5" width="31" height="31" rx="5.5" stroke="#E0E0E0"/>
<g clip-path="url(#clip0_418_1546)">
<path d="M16.0234 16C16.0234 14.1591 17.5158 12.6667 19.3568 12.6667C21.1977 12.6667 22.6901 14.1591 22.6901 16C22.6901 17.841 21.1977 19.3333 19.3568 19.3333C17.5158 19.3333 16.0234 17.8409 16.0234 16Z" fill="#00BCFF"/>
<path d="M9.35669 22.6667C9.35669 20.8257 10.8491 19.3334 12.69 19.3334L14.4664 18.3955L16.0233 19.3334V22.6667C16.0233 24.5077 14.5309 26 12.69 26C10.8491 26 9.35669 24.5076 9.35669 22.6667Z" fill="#00CF7F"/>
<path d="M16.0233 6L14.2095 9.15117L16.0233 12.6666H19.3099C21.1508 12.6666 22.6432 11.1743 22.6432 9.33332C22.6432 7.49238 21.1508 6 19.3099 6H16.0233Z" fill="#FF7361"/>
<path d="M9.30994 9.33332C9.30994 11.1743 10.8023 12.6666 12.6433 12.6666L14.4115 13.3496L16.0233 12.6666V6H12.6432C10.8023 6 9.30994 7.49238 9.30994 9.33332Z" fill="#FF4D12"/>
<path d="M9.35669 16C9.35669 17.841 10.8491 19.3333 12.69 19.3333H16.0233V12.6667H12.69C10.8491 12.6667 9.35669 14.1591 9.35669 16Z" fill="#B659FF"/>
</g>
<line x1="33" y1="15" x2="71" y2="15" stroke="#ED6B2E" stroke-width="2" stroke-linecap="round" stroke-dasharray="6 6"/>
<rect x="72.5" y="0.5" width="31" height="31" rx="5.5" fill="white"/>
<rect x="72.5" y="0.5" width="31" height="31" rx="5.5" stroke="#E0E0E0"/>
<g clip-path="url(#clip1_418_1546)">
<path d="M82.2344 6H83.1328V6.89062H83.9609V6H84.8594V8.69531H83.9609V7.79688H83.1406V8.69531H82.2344V6ZM86.0469 6.89844H85.2539V6H87.7422V6.89844H86.9453V8.69531H86.0469V6.89844ZM88.1367 6H89.0781L89.6562 6.94922L90.2344 6H91.1758V8.69531H90.2773V7.35938L89.6484 8.32812L89.0195 7.35938V8.69531H88.1367V6ZM91.6211 6H92.5195V7.80469H93.793V8.69531H91.6211V6Z" fill="#9B9B9B"/>
<path d="M82.2031 24.3984L80.9141 9.92969H95.0859L93.7969 24.3906L87.9883 26" fill="#FF4C1E"/>
<path d="M88 24.7695V11.1172H93.793L92.6875 23.4609L88 24.7695Z" fill="#FF651E"/>
<path d="M83.5469 12.8867H88L88.6621 13.7734L88 14.6602H85.4922L85.6562 16.4766H88L88.6621 17.3964L88 18.2461H84.0312L83.5469 12.8867ZM84.1094 19.1367H85.8906L86.0156 20.5547L88 21.0859L88.7471 21.9711L88 22.9375L84.3594 21.9219L84.1094 19.1367Z" fill="#EBEBEB"/>
<path d="M92.4375 12.8867H87.9922V14.6602H92.2734L92.4375 12.8867ZM92.1133 16.4766H87.9922V18.25H90.1797L89.9727 20.5547L87.9922 21.0859V22.9297L91.625 21.9219L92.1133 16.4766Z" fill="white"/>
</g>
<line x1="105" y1="15" x2="143" y2="15" stroke="#ED6B2E" stroke-width="2" stroke-linecap="round" stroke-dasharray="6 6"/>
<rect x="144.5" y="0.5" width="31" height="31" rx="5.5" fill="white"/>
<rect x="144.5" y="0.5" width="31" height="31" rx="5.5" stroke="#E0E0E0"/>
<g clip-path="url(#clip2_418_1546)">
<path d="M167.085 9.93048L165.794 24.3914L159.992 26L154.205 24.3936L152.916 9.93048H167.085Z" fill="#004CE8"/>
<path d="M164.689 23.4705L165.792 11.113H160V24.7704L164.689 23.4705Z" fill="#0065F4"/>
<path d="M155.872 16.4772L156.031 18.251H160L160.763 17.3641L160 16.4772H155.872Z" fill="#EBEBEB"/>
<path d="M160 12.8869H159.994H155.552L155.713 14.6608H160L160.763 13.7738L160 12.8869Z" fill="#EBEBEB"/>
<path d="M160 22.9296L160.763 21.989L160 21.0841L159.992 21.0862L158.017 20.5527L157.891 19.138H156.931H156.11L156.358 21.9232L159.992 22.9319L160 22.9296Z" fill="#EBEBEB"/>
<path d="M156.25 6H158.398V6.89844H157.148V7.79688H158.398V8.69531H156.25V6Z" fill="#9B9B9B"/>
<path d="M158.828 6H160.977V6.78125H159.727V6.9375H160.977V8.73438H158.828V7.91406H160.078V7.75781H158.828V6Z" fill="#9B9B9B"/>
<path d="M161.406 6H163.555V6.78125H162.305V6.9375H163.555V8.73438H161.406V7.91406H162.656V7.75781H161.406V6Z" fill="#9B9B9B"/>
<path d="M162.178 18.251L161.972 20.5516L159.994 21.0856V22.931L163.631 21.9232L163.657 21.6235L164.074 16.9535L164.117 16.4772L164.438 12.8869H159.994V14.6608H162.494L162.332 16.4772H159.994V18.251H162.178Z" fill="white"/>
</g>
<line x1="177" y1="15" x2="215" y2="15" stroke="#ED6B2E" stroke-width="2" stroke-linecap="round" stroke-dasharray="6 6"/>
<rect x="216.5" y="0.5" width="31" height="31" rx="5.5" fill="white"/>
<rect x="216.5" y="0.5" width="31" height="31" rx="5.5" stroke="#E0E0E0"/>
<g clip-path="url(#clip3_418_1546)">
<path d="M227.999 12.1723H226.895L229.906 20.6839L231.592 15.8668L230.285 12.1723H229.119V11.3613H234.28V12.1723H233.071L236.082 20.6839L237.165 17.5909C238.585 13.6281 236.001 12.3937 236.001 11.5093C236.001 10.6249 236.718 9.90796 237.602 9.90796C237.65 9.90796 237.697 9.91056 237.742 9.9148C236.244 8.50024 234.223 7.63278 232 7.63278C229.095 7.63278 226.536 9.11359 225.036 11.3613H227.999V12.1723H227.999Z" fill="#00769D"/>
<path d="M223.633 16C223.633 19.2034 225.433 21.9859 228.077 23.3919L224.301 12.7181C223.871 13.7258 223.633 14.8351 223.633 16Z" fill="#00769D"/>
<path d="M239.282 11.8769C239.402 12.5816 239.365 13.3737 239.182 14.1688H239.215L239.089 14.5303C239.014 14.7914 238.919 15.0584 238.812 15.3208L235.933 23.3865C238.571 21.9788 240.367 19.1993 240.367 16C240.367 14.5008 239.972 13.0939 239.282 11.8769Z" fill="#00769D"/>
<path d="M229.419 23.961C230.232 24.2243 231.099 24.3671 232 24.3671C232.859 24.3671 233.688 24.2375 234.468 23.997L232.02 17.0785L229.419 23.961Z" fill="#00769D"/>
<path d="M239.071 8.92892C237.182 7.04018 234.671 6 232 6C229.329 6 226.818 7.04018 224.929 8.92892C223.04 10.8177 222 13.3289 222 16C222 18.6711 223.04 21.1823 224.929 23.071C226.818 24.9598 229.329 26 232 26C234.671 26 237.182 24.9598 239.071 23.071C240.96 21.1823 242 18.6711 242 16C242 13.3289 240.96 10.8177 239.071 8.92892ZM232 25.2945C226.875 25.2945 222.705 21.125 222.705 16C222.705 10.875 226.875 6.70542 232 6.70542C237.125 6.70542 241.294 10.875 241.294 16C241.294 21.125 237.125 25.2945 232 25.2945Z" fill="#00769D"/>
</g>
<defs>
<clipPath id="clip0_418_1546">
<rect width="20" height="20" fill="white" transform="translate(6 6)"/>
</clipPath>
<clipPath id="clip1_418_1546">
<rect width="20" height="20" fill="white" transform="translate(78 6)"/>
</clipPath>
<clipPath id="clip2_418_1546">
<rect width="20" height="20" fill="white" transform="translate(150 6)"/>
</clipPath>
<clipPath id="clip3_418_1546">
<rect width="20" height="20" fill="white" transform="translate(222 6)"/>
</clipPath>
</defs>
</svg>
