<svg width="1238" height="152" viewBox="0 0 1238 152" fill="none" xmlns="http://www.w3.org/2000/svg">
<path d="M0.551424 150V2.173H41.2038C51.8429 2.173 59.8502 5.14074 65.2257 11.0762C70.6013 16.9557 73.289 25.5789 73.289 36.9459V106.156C73.289 120.155 70.8252 130.962 65.8977 138.577C61.0261 146.192 52.4589 150 40.1959 150H0.551424ZM30.2848 123.878H35.4084C40.8399 123.878 43.5556 121.247 43.5556 115.983V39.7177C43.5556 34.7901 42.8837 31.6264 41.5398 30.2265C40.2519 28.7707 37.5922 28.0427 33.5605 28.0427H30.2848V123.878ZM81.8003 150V2.173H140.931V30.7305H111.87V59.54H139.755V87.3415H111.87V121.191H142.863V150H81.8003ZM184.215 151.344C170.72 151.344 160.977 147.984 154.986 141.265C149.05 134.545 146.083 123.85 146.083 109.18V94.7329H175.312V113.211C175.312 116.627 175.816 119.315 176.824 121.275C177.888 123.178 179.708 124.13 182.283 124.13C184.971 124.13 186.819 123.346 187.827 121.778C188.891 120.211 189.423 117.635 189.423 114.051C189.423 109.516 188.975 105.736 188.079 102.712C187.183 99.6324 185.615 96.7207 183.375 93.9769C181.192 91.1772 178.14 87.9295 174.22 84.2338L160.949 71.6349C151.038 62.2837 146.083 51.5887 146.083 39.5497C146.083 26.9508 148.994 17.3477 154.818 10.7402C160.697 4.13282 169.181 0.829115 180.268 0.829115C193.818 0.829115 203.422 4.4408 209.077 11.6642C214.789 18.8875 217.644 29.8626 217.644 44.5893H187.575V34.4262C187.575 32.4103 186.987 30.8425 185.811 29.7226C184.691 28.6027 183.151 28.0427 181.192 28.0427C178.84 28.0427 177.104 28.7147 175.984 30.0585C174.92 31.3464 174.388 33.0263 174.388 35.0981C174.388 37.1699 174.948 39.4097 176.068 41.8175C177.188 44.2253 179.4 46.9971 182.703 50.1328L199.754 66.5113C203.17 69.7591 206.305 73.2028 209.161 76.8424C212.017 80.4261 214.313 84.6257 216.048 89.4413C217.784 94.2009 218.652 100.024 218.652 106.912C218.652 120.799 216.076 131.69 210.925 139.585C205.829 147.424 196.926 151.344 184.215 151.344ZM223.636 150V2.173H252.193V150H223.636ZM290.858 151.344C269.748 151.344 259.193 136.225 259.193 105.988V42.2375C259.193 14.6319 271.288 0.829115 295.478 0.829115C305.445 0.829115 313.088 2.84494 318.407 6.87658C323.727 10.8522 327.395 16.6757 329.411 24.347C331.426 32.0184 332.434 41.3696 332.434 52.4006H303.541V39.2977C303.541 36.106 303.093 33.4462 302.197 31.3184C301.357 29.1346 299.565 28.0427 296.821 28.0427C293.406 28.0427 291.138 29.1906 290.018 31.4864C288.954 33.7822 288.422 36.302 288.422 39.0458V110.691C288.422 114.667 288.926 117.915 289.934 120.435C290.998 122.898 293.042 124.13 296.065 124.13C299.201 124.13 301.273 122.898 302.281 120.435C303.345 117.915 303.877 114.611 303.877 110.523V89.4413H295.981V63.9076H332.098V150H320.255L315.216 137.569C310.064 146.752 301.945 151.344 290.858 151.344ZM340.274 150V2.173H370.679L384.286 72.9788V2.173H412.843V150H383.95L369.167 76.0865V150H340.274ZM459.095 150V2.173H518.226V30.7305H489.164V59.54H517.05V87.3415H489.164V121.191H520.158V150H459.095ZM522.118 150L537.992 71.6349L525.393 2.089H554.287L561.93 52.9045L568.733 2.089H597.711L585.112 71.6349L600.903 150H571.001L561.678 92.2131L552.103 150H522.118ZM606.138 150V2.173H645.195C653.37 2.173 659.837 3.99284 664.597 7.63252C669.413 11.2722 672.856 16.4517 674.928 23.1712C677 29.8906 678.036 37.8979 678.036 47.193C678.036 56.1523 677.168 63.9636 675.432 70.627C673.696 77.2344 670.589 82.3579 666.109 85.9976C661.685 89.6373 655.386 91.4571 647.211 91.4571H635.2V150H606.138ZM635.2 64.9155H636.88C642.367 64.9155 645.727 63.3756 646.959 60.2959C648.191 57.2162 648.806 52.6806 648.806 46.6891C648.806 41.0896 648.191 36.778 646.959 33.7542C645.783 30.6745 642.955 29.1346 638.475 29.1346H635.2V64.9155ZM683.859 150V2.173H713.425V124.802H743.83V150H683.859ZM783.923 151.344C772.108 151.344 763.064 147.788 756.793 140.677C750.577 133.509 747.47 123.178 747.47 109.684V39.4657C747.47 26.8108 750.549 17.2077 756.709 10.6563C762.924 4.10483 771.996 0.829115 783.923 0.829115C795.85 0.829115 804.893 4.10483 811.052 10.6563C817.268 17.2077 820.375 26.8108 820.375 39.4657V109.684C820.375 123.178 817.24 133.509 810.968 140.677C804.753 147.788 795.738 151.344 783.923 151.344ZM784.175 124.13C788.654 124.13 790.894 119.791 790.894 111.111V38.9618C790.894 31.6824 788.71 28.0427 784.343 28.0427C779.415 28.0427 776.951 31.7664 776.951 39.2137V111.279C776.951 115.871 777.511 119.175 778.631 121.191C779.751 123.15 781.599 124.13 784.175 124.13ZM828.719 150V2.173H874.075C881.634 2.173 887.345 3.90884 891.209 7.38054C895.073 10.7962 897.649 15.6118 898.936 21.8273C900.28 27.9867 900.952 35.2381 900.952 43.5814C900.952 51.6446 899.916 58.0841 897.845 62.8997C895.829 67.7152 891.993 71.0469 886.338 72.8948C890.985 73.8467 894.233 76.1705 896.081 79.8662C897.985 83.5058 898.936 88.2374 898.936 94.0609V150H869.791V92.1291C869.791 87.8175 868.895 85.1577 867.103 84.1498C865.367 83.0859 862.54 82.5539 858.62 82.5539V150H828.719ZM858.788 56.9362H865.927C870.015 56.9362 872.059 52.4846 872.059 43.5814C872.059 37.8139 871.611 34.0342 870.715 32.2424C869.819 30.4505 868.139 29.5546 865.675 29.5546H858.788V56.9362ZM903.08 150L917.359 2.173H967.502L981.529 150H953.56L951.46 126.146H933.653L931.806 150H903.08ZM935.753 102.544H949.192L942.725 27.3708H941.381L935.753 102.544ZM997.516 150V30.5625H979.961V2.173H1044.64V30.5625H1027.08V150H997.516ZM1047.94 150V2.173H1076.5V150H1047.94ZM1119.95 151.344C1108.13 151.344 1099.09 147.788 1092.82 140.677C1086.6 133.509 1083.5 123.178 1083.5 109.684V39.4657C1083.5 26.8108 1086.58 17.2077 1092.74 10.6563C1098.95 4.10483 1108.02 0.829115 1119.95 0.829115C1131.88 0.829115 1140.92 4.10483 1147.08 10.6563C1153.29 17.2077 1156.4 26.8108 1156.4 39.4657V109.684C1156.4 123.178 1153.27 133.509 1146.99 140.677C1140.78 147.788 1131.76 151.344 1119.95 151.344ZM1120.2 124.13C1124.68 124.13 1126.92 119.791 1126.92 111.111V38.9618C1126.92 31.6824 1124.74 28.0427 1120.37 28.0427C1115.44 28.0427 1112.98 31.7664 1112.98 39.2137V111.279C1112.98 115.871 1113.54 119.175 1114.66 121.191C1115.78 123.15 1117.63 124.13 1120.2 124.13ZM1164.75 150V2.173H1195.15L1208.76 72.9788V2.173H1237.31V150H1208.42L1193.64 76.0865V150H1164.75Z" fill="black"/>
</svg>
