<svg width="46" height="46" viewBox="0 0 46 46" fill="none" xmlns="http://www.w3.org/2000/svg">
<g filter="url(#filter0_dd_44_86)">
<circle cx="23" cy="22" r="20" fill="white"/>
<path fill-rule="evenodd" clip-rule="evenodd" d="M23.024 21.7849C23.024 19.6647 24.7427 17.946 26.8629 17.946C28.9831 17.946 30.7019 19.6647 30.7019 21.7849C30.7019 23.9051 28.9831 25.6239 26.8629 25.6239C24.7427 25.6239 23.024 23.9051 23.024 21.7849Z" fill="#1ABCFE"/>
<path fill-rule="evenodd" clip-rule="evenodd" d="M15.3461 29.4628C15.3461 27.3426 17.0648 25.6239 19.185 25.6239H23.024V29.4628C23.024 31.583 21.3052 33.3018 19.185 33.3018C17.0648 33.3018 15.3461 31.583 15.3461 29.4628Z" fill="#0ACF83"/>
<path fill-rule="evenodd" clip-rule="evenodd" d="M23.024 10.2681V17.946H26.8629C28.9831 17.946 30.7019 16.2272 30.7019 14.107C30.7019 11.9868 28.9831 10.2681 26.8629 10.2681H23.024Z" fill="#FF7262"/>
<path fill-rule="evenodd" clip-rule="evenodd" d="M15.3461 14.107C15.3461 16.2272 17.0648 17.946 19.185 17.946H23.024V10.2681H19.185C17.0648 10.2681 15.3461 11.9868 15.3461 14.107Z" fill="#F24E1E"/>
<path fill-rule="evenodd" clip-rule="evenodd" d="M15.3461 21.7849C15.3461 23.9051 17.0648 25.6239 19.185 25.6239H23.024V17.946H19.185C17.0648 17.946 15.3461 19.6647 15.3461 21.7849Z" fill="#A259FF"/>
</g>
<defs>
<filter id="filter0_dd_44_86" x="0" y="0" width="46" height="46" filterUnits="userSpaceOnUse" color-interpolation-filters="sRGB">
<feFlood flood-opacity="0" result="BackgroundImageFix"/>
<feColorMatrix in="SourceAlpha" type="matrix" values="0 0 0 0 0 0 0 0 0 0 0 0 0 0 0 0 0 0 127 0" result="hardAlpha"/>
<feOffset dy="1"/>
<feGaussianBlur stdDeviation="1"/>
<feColorMatrix type="matrix" values="0 0 0 0 0.0627451 0 0 0 0 0.0941176 0 0 0 0 0.156863 0 0 0 0.06 0"/>
<feBlend mode="normal" in2="BackgroundImageFix" result="effect1_dropShadow_44_86"/>
<feColorMatrix in="SourceAlpha" type="matrix" values="0 0 0 0 0 0 0 0 0 0 0 0 0 0 0 0 0 0 127 0" result="hardAlpha"/>
<feOffset dy="1"/>
<feGaussianBlur stdDeviation="1.5"/>
<feColorMatrix type="matrix" values="0 0 0 0 0.0627451 0 0 0 0 0.0941176 0 0 0 0 0.156863 0 0 0 0.1 0"/>
<feBlend mode="normal" in2="effect1_dropShadow_44_86" result="effect2_dropShadow_44_86"/>
<feBlend mode="normal" in="SourceGraphic" in2="effect2_dropShadow_44_86" result="shape"/>
</filter>
</defs>
</svg>
