<svg width="32" height="32" viewBox="0 0 32 32" fill="none" xmlns="http://www.w3.org/2000/svg">
<rect width="32" height="32" rx="16" fill="#1275B1"/>
<path d="M12.1355 8.79106C12.1355 9.85912 11.2097 10.7249 10.0677 10.7249C8.92576 10.7249 8 9.85912 8 8.79106C8 7.72301 8.92576 6.85718 10.0677 6.85718C11.2097 6.85718 12.1355 7.72301 12.1355 8.79106Z" fill="white"/>
<path d="M8.28277 12.1464H11.8174V22.8572H8.28277V12.1464Z" fill="white"/>
<path d="M17.5081 12.1464H13.9735V22.8572H17.5081C17.5081 22.8572 17.5081 19.4853 17.5081 17.377C17.5081 16.1116 17.9402 14.8406 19.6642 14.8406C21.6126 14.8406 21.6009 16.4966 21.5918 17.7796C21.5799 19.4565 21.6082 21.1679 21.6082 22.8572H25.1429V17.2043C25.1129 13.5948 24.1724 11.9316 21.0781 11.9316C19.2405 11.9316 18.1014 12.7658 17.5081 13.5206V12.1464Z" fill="white"/>
</svg>
