<svg width="46" height="46" viewBox="0 0 46 46" fill="none" xmlns="http://www.w3.org/2000/svg">
<g filter="url(#filter0_dd_47_227)">
<circle cx="23" cy="22" r="20" fill="white"/>
<circle cx="23" cy="22" r="10" fill="#028CB0"/>
<path d="M16.1824 22C16.1824 24.7016 17.7538 27.0286 20.0263 28.1346L16.7747 19.2258C16.3842 20.0986 16.1824 21.0439 16.1824 22ZM23 28.8176C23.7917 28.8176 24.5533 28.6786 25.2664 28.4308L25.2181 28.3401L23.1208 22.5983L21.078 28.5396C21.6824 28.7209 22.3291 28.8176 23 28.8176ZM23.9368 18.8027L26.4027 26.1341L27.0857 23.8615C27.3758 22.9187 27.5994 22.2417 27.5994 21.6555C27.5994 20.8093 27.2972 20.2291 27.0434 19.7819C26.6928 19.2137 26.3725 18.7363 26.3725 18.1802C26.3725 17.5516 26.8439 16.9714 27.5208 16.9714H27.6055C26.3492 15.8182 24.7053 15.1796 23 15.1824C21.8708 15.1822 20.7594 15.4627 19.7656 15.9986C18.7717 16.5346 17.9267 17.3092 17.3066 18.2527L17.7417 18.2648C18.4549 18.2648 19.5549 18.1742 19.5549 18.1742C19.9296 18.156 19.9719 18.6939 19.6033 18.7363C19.6033 18.7363 19.2346 18.7846 18.8175 18.8027L21.3077 26.1885L22.8005 21.7159L21.7368 18.8027C21.4985 18.7896 21.2607 18.7694 21.0236 18.7423C20.6549 18.7181 20.6972 18.156 21.0659 18.1742C21.0659 18.1742 22.1901 18.2648 22.861 18.2648C23.5741 18.2648 24.6741 18.1742 24.6741 18.1742C25.0428 18.156 25.0912 18.6939 24.7225 18.7363C24.7225 18.7363 24.3538 18.7786 23.9368 18.8027ZM26.4269 27.8928C27.4583 27.2932 28.3142 26.4333 28.9092 25.3992C29.5042 24.3651 29.8174 23.193 29.8175 22C29.8175 20.8154 29.5153 19.7033 28.9835 18.7302C29.0915 19.8008 28.9294 20.8813 28.5121 21.8731L26.4269 27.8928ZM23 29.8571C20.9161 29.8571 18.9176 29.0293 17.4441 27.5558C15.9706 26.0823 15.1428 24.0838 15.1428 22C15.1428 19.9161 15.9706 17.9177 17.4441 16.4442C18.9176 14.9707 20.9161 14.1428 23 14.1428C25.0838 14.1428 27.0823 14.9707 28.5558 16.4442C30.0293 17.9177 30.8571 19.9161 30.8571 22C30.8571 24.0838 30.0293 26.0823 28.5558 27.5558C27.0823 29.0293 25.0838 29.8571 23 29.8571Z" fill="white"/>
</g>
<defs>
<filter id="filter0_dd_47_227" x="0" y="0" width="46" height="46" filterUnits="userSpaceOnUse" color-interpolation-filters="sRGB">
<feFlood flood-opacity="0" result="BackgroundImageFix"/>
<feColorMatrix in="SourceAlpha" type="matrix" values="0 0 0 0 0 0 0 0 0 0 0 0 0 0 0 0 0 0 127 0" result="hardAlpha"/>
<feOffset dy="1"/>
<feGaussianBlur stdDeviation="1"/>
<feColorMatrix type="matrix" values="0 0 0 0 0.0627451 0 0 0 0 0.0941176 0 0 0 0 0.156863 0 0 0 0.06 0"/>
<feBlend mode="normal" in2="BackgroundImageFix" result="effect1_dropShadow_47_227"/>
<feColorMatrix in="SourceAlpha" type="matrix" values="0 0 0 0 0 0 0 0 0 0 0 0 0 0 0 0 0 0 127 0" result="hardAlpha"/>
<feOffset dy="1"/>
<feGaussianBlur stdDeviation="1.5"/>
<feColorMatrix type="matrix" values="0 0 0 0 0.0627451 0 0 0 0 0.0941176 0 0 0 0 0.156863 0 0 0 0.1 0"/>
<feBlend mode="normal" in2="effect1_dropShadow_47_227" result="effect2_dropShadow_47_227"/>
<feBlend mode="normal" in="SourceGraphic" in2="effect2_dropShadow_47_227" result="shape"/>
</filter>
</defs>
</svg>
